Coordinates
version=1
nRows=19
nColumns=24
inDegrees=yes

Units are S.I. units (second, meters, Newtons, ...)
If the header above contains a line with 'inDegrees', this indicates whether rotational values are in degrees (yes) or radians (no).

endheader
time	pelvis_tilt	pelvis_list	pelvis_rotation	pelvis_tx	pelvis_ty	pelvis_tz	hip_flexion_r	hip_adduction_r	hip_rotation_r	knee_angle_r	ankle_angle_r	subtalar_angle_r	mtp_angle_r	hip_flexion_l	hip_adduction_l	hip_rotation_l	knee_angle_l	ankle_angle_l	subtalar_angle_l	mtp_angle_l	lumbar_extension	lumbar_bending	lumbar_rotation
      0.00000000	     14.61999379	      2.46593456	   -178.30156634	      0.23358667	      0.84792921	     -1.20655991	     20.03810904	     -9.64583851	    -34.80572020	     -9.26682391	     -1.61128341	     13.60603049	      0.00000000	     21.15602008	    -14.63717119	    -31.05600533	     -9.15099960	     -1.61454550	     22.43568636	      0.00000000	      2.05935668	      0.60351134	     -1.56093660
      0.00500000	     14.60918548	      2.47484365	   -178.32095424	      0.23348683	      0.84793818	     -1.20654257	     20.07354167	     -9.66143613	    -34.78798624	     -9.38039203	     -1.55686495	     13.58236380	      0.00000000	     21.15758036	    -14.66775100	    -31.07603034	     -9.20149192	     -1.61153945	     22.41069686	      0.00000000	      2.07160780	      0.62490120	     -1.49360308
      0.01000000	     14.62134385	      2.47305988	   -178.34773070	      0.23330274	      0.84797867	     -1.20649823	     20.12393052	     -9.68340739	    -34.75667368	     -9.48154524	     -1.52749301	     13.57025984	      0.00000000	     21.16486751	    -14.67904090	    -31.12844217	     -9.23731662	     -1.61972877	     22.37049349	      0.00000000	      2.06504973	      0.64585064	     -1.50459769
      0.01500000	     14.61838139	      2.45660976	   -178.34471661	      0.23311334	      0.84801532	     -1.20649236	     20.15002611	     -9.72402874	    -34.71210915	     -9.58332385	     -1.47145798	     13.54156688	      0.00000000	     21.16381745	    -14.66892164	    -31.14845690	     -9.27299261	     -1.61456535	     22.35290207	      0.00000000	      2.05095427	      0.61842653	     -1.49309774
      0.02000000	     14.62366194	      2.42710204	   -178.32950192	      0.23288271	      0.84807766	     -1.20652977	     20.16515829	     -9.76889328	    -34.66106141	     -9.65012759	     -1.45927112	     13.52127984	      0.00000000	     21.17403023	    -14.64699073	    -31.19384648	     -9.32288544	     -1.60742163	     22.33253918	      0.00000000	      1.97547674	      0.62338244	     -1.68897915
      0.02500000	     14.60735455	      2.39924573	   -178.29833819	      0.23275872	      0.84812632	     -1.20657294	     20.17990823	     -9.82717146	    -34.64682764	     -9.75686695	     -1.43652054	     13.46138930	      0.00000000	     21.18877192	    -14.63150334	    -31.22519355	     -9.40006232	     -1.59706866	     22.33126582	      0.00000000	      1.94150319	      0.58175435	     -1.71438865
      0.03000000	     14.60047077	      2.37696261	   -178.30181736	      0.23263442	      0.84819488	     -1.20660768	     20.21255185	     -9.86384171	    -34.54372825	     -9.85397481	     -1.38748898	     13.38074065	      0.00000000	     21.19664827	    -14.62675591	    -31.28825852	     -9.45725019	     -1.59326026	     22.34115021	      0.00000000	      1.94324148	      0.50758789	     -1.56704552
      0.03500000	     14.58640533	      2.37899675	   -178.30563222	      0.23248631	      0.84828791	     -1.20661366	     20.24324869	     -9.88633188	    -34.53611053	     -9.96967370	     -1.35849988	     13.31051941	      0.00000000	     21.20241360	    -14.64808586	    -31.35060181	     -9.52391339	     -1.59576333	     22.32147618	      0.00000000	      1.92640269	      0.50058327	     -1.51004394
      0.04000000	     14.56216073	      2.37428924	   -178.32165882	      0.23234279	      0.84838083	     -1.20660685	     20.27351836	     -9.91209389	    -34.50822555	    -10.09835214	     -1.33203384	     13.22806612	      0.00000000	     21.19712753	    -14.66705197	    -31.42303058	     -9.60219173	     -1.59079088	     22.28337458	      0.00000000	      1.90893985	      0.47045301	     -1.38800893
      0.04500000	     14.54363382	      2.32412701	   -178.33983538	      0.23229610	      0.84840760	     -1.20660923	     20.31525715	     -9.98014638	    -34.37721260	    -10.22411653	     -1.28880915	     13.10925730	      0.00000000	     21.19828353	    -14.64233167	    -31.50153119	     -9.68068644	     -1.59790331	     22.27128548	      0.00000000	      1.89385898	      0.45312342	     -1.41527463
      0.05000000	     14.51309692	      2.30527629	   -178.31856713	      0.23214916	      0.84847733	     -1.20664189	     20.30017482	    -10.01157929	    -34.34325337	    -10.28809129	     -1.30045379	     13.04453201	      0.00000000	     21.20454880	    -14.64590150	    -31.58633048	     -9.77389856	     -1.59021396	     22.22682550	      0.00000000	      1.85083468	      0.43461820	     -1.45399446
      0.05500000	     14.48278713	      2.27860201	   -178.30767275	      0.23202684	      0.84857055	     -1.20667984	     20.30173058	    -10.05628178	    -34.30215130	    -10.37744286	     -1.27837703	     12.96536106	      0.00000000	     21.20514991	    -14.64322497	    -31.68693512	     -9.86250174	     -1.60310237	     22.17262371	      0.00000000	      1.80675456	      0.39036871	     -1.44593724
      0.06000000	     14.45766947	      2.25539130	   -178.30969545	      0.23190890	      0.84871643	     -1.20673246	     20.30409613	    -10.08543138	    -34.23683939	    -10.44844896	     -1.27285221	     12.89603187	      0.00000000	     21.20805585	    -14.64530449	    -31.78901122	     -9.94840168	     -1.61785134	     22.11525131	      0.00000000	      1.77577049	      0.34971472	     -1.41586805
      0.06500000	     14.43264403	      2.23928012	   -178.30844058	      0.23182530	      0.84887628	     -1.20675314	     20.31614185	    -10.11789391	    -34.19371819	    -10.53924185	     -1.26387272	     12.80124986	      0.00000000	     21.22566924	    -14.65438435	    -31.88356135	    -10.07486919	     -1.62268193	     22.03772106	      0.00000000	      1.72915705	      0.25953837	     -1.23999597
      0.07000000	     14.39756254	      2.22363222	   -178.30547817	      0.23172120	      0.84903607	     -1.20688722	     20.28337188	    -10.09543421	    -33.91373907	    -10.53230718	     -1.31418378	     12.37638740	      0.00000000	     21.23238482	    -14.70485269	    -32.16434353	    -10.21442143	     -1.61380878	     22.32721698	      0.00000000	      1.68793692	      0.29710153	     -1.38342096
      0.07500000	     14.36903904	      2.19979445	   -178.27196684	      0.23164030	      0.84914590	     -1.20694361	     20.26177679	    -10.13514846	    -33.92924055	    -10.57641728	     -1.32083054	     12.34462526	      0.00000000	     21.26369998	    -14.70204068	    -32.25958451	    -10.33342550	     -1.60644731	     22.26314710	      0.00000000	      1.64946629	      0.26488140	     -1.41488096
      0.08000000	     14.33581811	      2.17127958	   -178.25534802	      0.23154580	      0.84925805	     -1.20698316	     20.24885064	    -10.17995844	    -33.92972910	    -10.64538577	     -1.33017064	     12.30398425	      0.00000000	     21.27969135	    -14.69483727	    -32.38610497	    -10.44205766	     -1.61075450	     22.18414451	      0.00000000	      1.60327363	      0.23472941	     -1.42406592
      0.08500000	     14.30163543	      2.14952823	   -178.25389501	      0.23145171	      0.84940641	     -1.20701390	     20.23926002	    -10.21107707	    -33.89640235	    -10.70955664	     -1.33862408	     12.25511557	      0.00000000	     21.29992833	    -14.70135170	    -32.52610155	    -10.56197908	     -1.63537423	     22.11106708	      0.00000000	      1.55962515	      0.22025740	     -1.40378383
      0.09000000	     14.27989495	      2.13486269	   -178.24926992	      0.23130946	      0.84955917	     -1.20700451	     20.23096253	    -10.23684936	    -33.90686774	    -10.75785674	     -1.34365771	     12.22899867	      0.00000000	     21.34087907	    -14.70835635	    -32.67909667	    -10.69097961	     -1.64482227	     22.01344071	      0.00000000	      1.50297430	      0.23913792	     -1.48722332
